<?xml version="1.0" encoding="UTF-8" standalone="no"?>
<!DOCTYPE svg PUBLIC "-//W3C//DTD SVG 1.1//EN"
 "http://www.w3.org/Graphics/SVG/1.1/DTD/svg11.dtd">
<!-- Generated by graphviz version 5.0.0 (20220707.1540)
 -->
<!-- Title: dependencies Pages: 1 -->
<svg width="732pt" height="247pt"
 viewBox="0.00 0.00 732.00 246.80" xmlns="http://www.w3.org/2000/svg" xmlns:xlink="http://www.w3.org/1999/xlink">
<g id="graph0" class="graph" transform="scale(1 1) rotate(0) translate(4 242.8)">
<title>dependencies</title>
<polygon fill="white" stroke="transparent" points="-4,4 -4,-242.8 728,-242.8 728,4 -4,4"/>
<text text-anchor="middle" x="362" y="-8.2" font-family="sans-serif" font-size="14.00">dependencies</text>
<g id="clust1" class="cluster">
<title>cluster_RepositoriesModule</title>
<polygon fill="none" stroke="black" stroke-dasharray="1,5" points="8,-32.8 8,-230.8 716,-230.8 716,-32.8 8,-32.8"/>
</g>
<g id="clust4" class="cluster">
<title>cluster_RepositoriesModule_exports</title>
<polygon fill="none" stroke="black" points="205,-170.8 205,-222.8 596,-222.8 596,-170.8 205,-170.8"/>
</g>
<g id="clust3" class="cluster">
<title>cluster_RepositoriesModule_imports</title>
<polygon fill="none" stroke="black" points="540,-40.8 540,-92.8 708,-92.8 708,-40.8 540,-40.8"/>
</g>
<g id="clust6" class="cluster">
<title>cluster_RepositoriesModule_providers</title>
<polygon fill="none" stroke="black" points="16,-40.8 16,-92.8 532,-92.8 532,-40.8 16,-40.8"/>
</g>
<!-- TypeOrmConfigModule -->
<g id="node1" class="node">
<title>TypeOrmConfigModule</title>
<polygon fill="#8dd3c7" stroke="black" points="700.37,-84.8 697.37,-88.8 676.37,-88.8 673.37,-84.8 547.63,-84.8 547.63,-48.8 700.37,-48.8 700.37,-84.8"/>
<text text-anchor="middle" x="624" y="-62.6" font-family="Times,serif" font-size="14.00">TypeOrmConfigModule</text>
</g>
<!-- RepositoriesModule -->
<g id="node2" class="node">
<title>RepositoriesModule</title>
<polygon fill="#8dd3c7" stroke="black" points="454.55,-149.8 451.55,-153.8 430.55,-153.8 427.55,-149.8 325.45,-149.8 325.45,-113.8 454.55,-113.8 454.55,-149.8"/>
<text text-anchor="middle" x="390" y="-127.6" font-family="Times,serif" font-size="14.00">RepositoriesModule</text>
</g>
<!-- TypeOrmConfigModule&#45;&gt;RepositoriesModule -->
<g id="edge1" class="edge">
<title>TypeOrmConfigModule&#45;&gt;RepositoriesModule</title>
<path fill="none" stroke="black" d="M567.86,-84.91C567.86,-104.14 567.86,-131.8 567.86,-131.8 567.86,-131.8 464.72,-131.8 464.72,-131.8"/>
<polygon fill="black" stroke="black" points="464.72,-128.3 454.72,-131.8 464.72,-135.3 464.72,-128.3"/>
</g>
<!-- DatabaseTransactionRepository  -->
<g id="node3" class="node">
<title>DatabaseTransactionRepository </title>
<polygon fill="#fb8072" stroke="black" points="588.33,-214.8 389.67,-214.8 389.67,-178.8 588.33,-178.8 588.33,-214.8"/>
<text text-anchor="middle" x="489" y="-192.6" font-family="Times,serif" font-size="14.00">DatabaseTransactionRepository </text>
</g>
<!-- RepositoriesModule&#45;&gt;DatabaseTransactionRepository  -->
<g id="edge2" class="edge">
<title>RepositoriesModule&#45;&gt;DatabaseTransactionRepository </title>
<path fill="none" stroke="black" stroke-dasharray="5,2" d="M422.3,-149.91C422.3,-149.91 422.3,-168.79 422.3,-168.79"/>
<polygon fill="black" stroke="black" points="418.8,-168.79 422.3,-178.79 425.8,-168.79 418.8,-168.79"/>
</g>
<!-- DatabaseUserRepository  -->
<g id="node4" class="node">
<title>DatabaseUserRepository </title>
<polygon fill="#fb8072" stroke="black" points="371.18,-214.8 212.82,-214.8 212.82,-178.8 371.18,-178.8 371.18,-214.8"/>
<text text-anchor="middle" x="292" y="-192.6" font-family="Times,serif" font-size="14.00">DatabaseUserRepository </text>
</g>
<!-- RepositoriesModule&#45;&gt;DatabaseUserRepository  -->
<g id="edge3" class="edge">
<title>RepositoriesModule&#45;&gt;DatabaseUserRepository </title>
<path fill="none" stroke="black" stroke-dasharray="5,2" d="M348.28,-149.91C348.28,-149.91 348.28,-168.79 348.28,-168.79"/>
<polygon fill="black" stroke="black" points="344.78,-168.79 348.28,-178.79 351.78,-168.79 344.78,-168.79"/>
</g>
<!-- DatabaseTransactionRepository -->
<g id="node5" class="node">
<title>DatabaseTransactionRepository</title>
<ellipse fill="#fdb462" stroke="black" cx="390" cy="-66.8" rx="134.28" ry="18"/>
<text text-anchor="middle" x="390" y="-62.6" font-family="Times,serif" font-size="14.00">DatabaseTransactionRepository</text>
</g>
<!-- DatabaseTransactionRepository&#45;&gt;RepositoriesModule -->
<g id="edge4" class="edge">
<title>DatabaseTransactionRepository&#45;&gt;RepositoriesModule</title>
<path fill="none" stroke="black" d="M390,-84.91C390,-84.91 390,-103.79 390,-103.79"/>
<polygon fill="black" stroke="black" points="386.5,-103.79 390,-113.79 393.5,-103.79 386.5,-103.79"/>
</g>
<!-- DatabaseUserRepository -->
<g id="node6" class="node">
<title>DatabaseUserRepository</title>
<ellipse fill="#fdb462" stroke="black" cx="131" cy="-66.8" rx="107.08" ry="18"/>
<text text-anchor="middle" x="131" y="-62.6" font-family="Times,serif" font-size="14.00">DatabaseUserRepository</text>
</g>
<!-- DatabaseUserRepository&#45;&gt;RepositoriesModule -->
<g id="edge5" class="edge">
<title>DatabaseUserRepository&#45;&gt;RepositoriesModule</title>
<path fill="none" stroke="black" d="M225.35,-75.57C225.35,-93.31 225.35,-131.8 225.35,-131.8 225.35,-131.8 315.4,-131.8 315.4,-131.8"/>
<polygon fill="black" stroke="black" points="315.4,-135.3 325.4,-131.8 315.4,-128.3 315.4,-135.3"/>
</g>
</g>
</svg>
