<?xml version="1.0" encoding="UTF-8" standalone="no"?>
<!DOCTYPE svg PUBLIC "-//W3C//DTD SVG 1.1//EN"
 "http://www.w3.org/Graphics/SVG/1.1/DTD/svg11.dtd">
<!-- Generated by graphviz version 5.0.0 (20220707.1540)
 -->
<!-- Title: dependencies Pages: 1 -->
<svg width="471pt" height="247pt"
 viewBox="0.00 0.00 471.00 246.80" xmlns="http://www.w3.org/2000/svg" xmlns:xlink="http://www.w3.org/1999/xlink">
<g id="graph0" class="graph" transform="scale(1 1) rotate(0) translate(4 242.8)">
<title>dependencies</title>
<polygon fill="white" stroke="transparent" points="-4,4 -4,-242.8 467,-242.8 467,4 -4,4"/>
<text text-anchor="middle" x="231.5" y="-8.2" font-family="sans-serif" font-size="14.00">dependencies</text>
<g id="clust1" class="cluster">
<title>cluster_ApiConfigModule</title>
<polygon fill="none" stroke="black" stroke-dasharray="1,5" points="8,-32.8 8,-230.8 455,-230.8 455,-32.8 8,-32.8"/>
</g>
<g id="clust6" class="cluster">
<title>cluster_ApiConfigModule_providers</title>
<polygon fill="none" stroke="black" points="16,-40.8 16,-92.8 447,-92.8 447,-40.8 16,-40.8"/>
</g>
<g id="clust4" class="cluster">
<title>cluster_ApiConfigModule_exports</title>
<polygon fill="none" stroke="black" points="180,-170.8 180,-222.8 318,-222.8 318,-170.8 180,-170.8"/>
</g>
<!-- ApiConfigService  -->
<g id="node1" class="node">
<title>ApiConfigService </title>
<polygon fill="#fb8072" stroke="black" points="309.87,-214.8 188.13,-214.8 188.13,-178.8 309.87,-178.8 309.87,-214.8"/>
<text text-anchor="middle" x="249" y="-192.6" font-family="Times,serif" font-size="14.00">ApiConfigService </text>
</g>
<!-- ApiConfigModule -->
<g id="node2" class="node">
<title>ApiConfigModule</title>
<polygon fill="#8dd3c7" stroke="black" points="308.94,-149.8 305.94,-153.8 284.94,-153.8 281.94,-149.8 189.06,-149.8 189.06,-113.8 308.94,-113.8 308.94,-149.8"/>
<text text-anchor="middle" x="249" y="-127.6" font-family="Times,serif" font-size="14.00">ApiConfigModule</text>
</g>
<!-- ApiConfigModule&#45;&gt;ApiConfigService  -->
<g id="edge1" class="edge">
<title>ApiConfigModule&#45;&gt;ApiConfigService </title>
<path fill="none" stroke="black" stroke-dasharray="5,2" d="M249,-149.91C249,-149.91 249,-168.79 249,-168.79"/>
<polygon fill="black" stroke="black" points="245.5,-168.79 249,-178.79 252.5,-168.79 245.5,-168.79"/>
</g>
<!-- ApiConfigService -->
<g id="node3" class="node">
<title>ApiConfigService</title>
<ellipse fill="#fdb462" stroke="black" cx="358" cy="-66.8" rx="81.11" ry="18"/>
<text text-anchor="middle" x="358" y="-62.6" font-family="Times,serif" font-size="14.00">ApiConfigService</text>
</g>
<!-- ApiConfigService&#45;&gt;ApiConfigModule -->
<g id="edge2" class="edge">
<title>ApiConfigService&#45;&gt;ApiConfigModule</title>
<path fill="none" stroke="black" d="M292.71,-77.53C292.71,-77.53 292.71,-103.67 292.71,-103.67"/>
<polygon fill="black" stroke="black" points="289.21,-103.67 292.71,-113.67 296.21,-103.67 289.21,-103.67"/>
</g>
<!-- EnvironmentConfigService -->
<g id="node4" class="node">
<title>EnvironmentConfigService</title>
<ellipse fill="#fdb462" stroke="black" cx="141" cy="-66.8" rx="117.48" ry="18"/>
<text text-anchor="middle" x="141" y="-62.6" font-family="Times,serif" font-size="14.00">EnvironmentConfigService</text>
</g>
<!-- EnvironmentConfigService&#45;&gt;ApiConfigModule -->
<g id="edge3" class="edge">
<title>EnvironmentConfigService&#45;&gt;ApiConfigModule</title>
<path fill="none" stroke="black" d="M223.76,-79.64C223.76,-79.64 223.76,-103.32 223.76,-103.32"/>
<polygon fill="black" stroke="black" points="220.26,-103.32 223.76,-113.32 227.26,-103.32 220.26,-103.32"/>
</g>
</g>
</svg>
