<?xml version="1.0" encoding="UTF-8" standalone="no"?>
<!DOCTYPE svg PUBLIC "-//W3C//DTD SVG 1.1//EN"
 "http://www.w3.org/Graphics/SVG/1.1/DTD/svg11.dtd">
<!-- Generated by graphviz version 5.0.0 (20220707.1540)
 -->
<!-- Title: dependencies Pages: 1 -->
<svg width="290pt" height="247pt"
 viewBox="0.00 0.00 290.00 246.80" xmlns="http://www.w3.org/2000/svg" xmlns:xlink="http://www.w3.org/1999/xlink">
<g id="graph0" class="graph" transform="scale(1 1) rotate(0) translate(4 242.8)">
<title>dependencies</title>
<polygon fill="white" stroke="transparent" points="-4,4 -4,-242.8 286,-242.8 286,4 -4,4"/>
<text text-anchor="middle" x="141" y="-8.2" font-family="sans-serif" font-size="14.00">dependencies</text>
<g id="clust1" class="cluster">
<title>cluster_EnvironmentConfigModule</title>
<polygon fill="none" stroke="black" stroke-dasharray="1,5" points="8,-32.8 8,-230.8 274,-230.8 274,-32.8 8,-32.8"/>
</g>
<g id="clust4" class="cluster">
<title>cluster_EnvironmentConfigModule_exports</title>
<polygon fill="none" stroke="black" points="46,-170.8 46,-222.8 236,-222.8 236,-170.8 46,-170.8"/>
</g>
<g id="clust6" class="cluster">
<title>cluster_EnvironmentConfigModule_providers</title>
<polygon fill="none" stroke="black" points="16,-40.8 16,-92.8 266,-92.8 266,-40.8 16,-40.8"/>
</g>
<!-- EnvironmentConfigService  -->
<g id="node1" class="node">
<title>EnvironmentConfigService </title>
<polygon fill="#fb8072" stroke="black" points="227.97,-214.8 54.03,-214.8 54.03,-178.8 227.97,-178.8 227.97,-214.8"/>
<text text-anchor="middle" x="141" y="-192.6" font-family="Times,serif" font-size="14.00">EnvironmentConfigService </text>
</g>
<!-- EnvironmentConfigModule -->
<g id="node2" class="node">
<title>EnvironmentConfigModule</title>
<polygon fill="#8dd3c7" stroke="black" points="226.54,-149.8 223.54,-153.8 202.54,-153.8 199.54,-149.8 55.46,-149.8 55.46,-113.8 226.54,-113.8 226.54,-149.8"/>
<text text-anchor="middle" x="141" y="-127.6" font-family="Times,serif" font-size="14.00">EnvironmentConfigModule</text>
</g>
<!-- EnvironmentConfigModule&#45;&gt;EnvironmentConfigService  -->
<g id="edge1" class="edge">
<title>EnvironmentConfigModule&#45;&gt;EnvironmentConfigService </title>
<path fill="none" stroke="black" stroke-dasharray="5,2" d="M141,-149.91C141,-149.91 141,-168.79 141,-168.79"/>
<polygon fill="black" stroke="black" points="137.5,-168.79 141,-178.79 144.5,-168.79 137.5,-168.79"/>
</g>
<!-- EnvironmentConfigService -->
<g id="node3" class="node">
<title>EnvironmentConfigService</title>
<ellipse fill="#fdb462" stroke="black" cx="141" cy="-66.8" rx="117.48" ry="18"/>
<text text-anchor="middle" x="141" y="-62.6" font-family="Times,serif" font-size="14.00">EnvironmentConfigService</text>
</g>
<!-- EnvironmentConfigService&#45;&gt;EnvironmentConfigModule -->
<g id="edge2" class="edge">
<title>EnvironmentConfigService&#45;&gt;EnvironmentConfigModule</title>
<path fill="none" stroke="black" d="M141,-84.91C141,-84.91 141,-103.79 141,-103.79"/>
<polygon fill="black" stroke="black" points="137.5,-103.79 141,-113.79 144.5,-103.79 137.5,-103.79"/>
</g>
</g>
</svg>
