<?xml version="1.0" encoding="UTF-8" standalone="no"?>
<!DOCTYPE svg PUBLIC "-//W3C//DTD SVG 1.1//EN"
 "http://www.w3.org/Graphics/SVG/1.1/DTD/svg11.dtd">
<!-- Generated by graphviz version 5.0.0 (20220707.1540)
 -->
<!-- Title: dependencies Pages: 1 -->
<svg width="846pt" height="174pt"
 viewBox="0.00 0.00 846.00 173.80" xmlns="http://www.w3.org/2000/svg" xmlns:xlink="http://www.w3.org/1999/xlink">
<g id="graph0" class="graph" transform="scale(1 1) rotate(0) translate(4 169.8)">
<title>dependencies</title>
<polygon fill="white" stroke="transparent" points="-4,4 -4,-169.8 842,-169.8 842,4 -4,4"/>
<text text-anchor="middle" x="419" y="-8.2" font-family="sans-serif" font-size="14.00">dependencies</text>
<g id="clust1" class="cluster">
<title>cluster_AuthUsecasesProxyModule</title>
<polygon fill="none" stroke="black" stroke-dasharray="1,5" points="8,-32.8 8,-157.8 830,-157.8 830,-32.8 8,-32.8"/>
</g>
<g id="clust3" class="cluster">
<title>cluster_AuthUsecasesProxyModule_imports</title>
<polygon fill="none" stroke="black" points="16,-40.8 16,-92.8 822,-92.8 822,-40.8 16,-40.8"/>
</g>
<!-- BcryptModule -->
<g id="node1" class="node">
<title>BcryptModule</title>
<polygon fill="#8dd3c7" stroke="black" points="813.66,-84.8 810.66,-88.8 789.66,-88.8 786.66,-84.8 716.34,-84.8 716.34,-48.8 813.66,-48.8 813.66,-84.8"/>
<text text-anchor="middle" x="765" y="-62.6" font-family="Times,serif" font-size="14.00">BcryptModule</text>
</g>
<!-- AuthUsecasesProxyModule -->
<g id="node7" class="node">
<title>AuthUsecasesProxyModule</title>
<polygon fill="#8dd3c7" stroke="black" points="474.31,-149.8 471.31,-153.8 450.31,-153.8 447.31,-149.8 301.69,-149.8 301.69,-113.8 474.31,-113.8 474.31,-149.8"/>
<text text-anchor="middle" x="388" y="-127.6" font-family="Times,serif" font-size="14.00">AuthUsecasesProxyModule</text>
</g>
<!-- BcryptModule&#45;&gt;AuthUsecasesProxyModule -->
<g id="edge1" class="edge">
<title>BcryptModule&#45;&gt;AuthUsecasesProxyModule</title>
<path fill="none" stroke="black" d="M765,-85.08C765,-106.12 765,-137.8 765,-137.8 765,-137.8 484.49,-137.8 484.49,-137.8"/>
<polygon fill="black" stroke="black" points="484.49,-134.3 474.49,-137.8 484.49,-141.3 484.49,-134.3"/>
</g>
<!-- EnvironmentConfigModule -->
<g id="node2" class="node">
<title>EnvironmentConfigModule</title>
<polygon fill="#8dd3c7" stroke="black" points="697.54,-84.8 694.54,-88.8 673.54,-88.8 670.54,-84.8 526.46,-84.8 526.46,-48.8 697.54,-48.8 697.54,-84.8"/>
<text text-anchor="middle" x="612" y="-62.6" font-family="Times,serif" font-size="14.00">EnvironmentConfigModule</text>
</g>
<!-- EnvironmentConfigModule&#45;&gt;AuthUsecasesProxyModule -->
<g id="edge2" class="edge">
<title>EnvironmentConfigModule&#45;&gt;AuthUsecasesProxyModule</title>
<path fill="none" stroke="black" d="M612,-84.82C612,-102.17 612,-125.8 612,-125.8 612,-125.8 484.28,-125.8 484.28,-125.8"/>
<polygon fill="black" stroke="black" points="484.28,-122.3 474.28,-125.8 484.28,-129.3 484.28,-122.3"/>
</g>
<!-- ExceptionsModule -->
<g id="node3" class="node">
<title>ExceptionsModule</title>
<polygon fill="#8dd3c7" stroke="black" points="507.76,-84.8 504.76,-88.8 483.76,-88.8 480.76,-84.8 386.24,-84.8 386.24,-48.8 507.76,-48.8 507.76,-84.8"/>
<text text-anchor="middle" x="447" y="-62.6" font-family="Times,serif" font-size="14.00">ExceptionsModule</text>
</g>
<!-- ExceptionsModule&#45;&gt;AuthUsecasesProxyModule -->
<g id="edge3" class="edge">
<title>ExceptionsModule&#45;&gt;AuthUsecasesProxyModule</title>
<path fill="none" stroke="black" d="M430.14,-84.91C430.14,-84.91 430.14,-103.79 430.14,-103.79"/>
<polygon fill="black" stroke="black" points="426.64,-103.79 430.14,-113.79 433.64,-103.79 426.64,-103.79"/>
</g>
<!-- JwtModule -->
<g id="node4" class="node">
<title>JwtModule</title>
<polygon fill="#8dd3c7" stroke="black" points="368.5,-84.8 365.5,-88.8 344.5,-88.8 341.5,-84.8 289.5,-84.8 289.5,-48.8 368.5,-48.8 368.5,-84.8"/>
<text text-anchor="middle" x="329" y="-62.6" font-family="Times,serif" font-size="14.00">JwtModule</text>
</g>
<!-- JwtModule&#45;&gt;AuthUsecasesProxyModule -->
<g id="edge4" class="edge">
<title>JwtModule&#45;&gt;AuthUsecasesProxyModule</title>
<path fill="none" stroke="black" d="M335.17,-84.91C335.17,-84.91 335.17,-103.79 335.17,-103.79"/>
<polygon fill="black" stroke="black" points="331.67,-103.79 335.17,-113.79 338.67,-103.79 331.67,-103.79"/>
</g>
<!-- LoggerModule -->
<g id="node5" class="node">
<title>LoggerModule</title>
<polygon fill="#8dd3c7" stroke="black" points="271.98,-84.8 268.98,-88.8 247.98,-88.8 244.98,-84.8 172.02,-84.8 172.02,-48.8 271.98,-48.8 271.98,-84.8"/>
<text text-anchor="middle" x="222" y="-62.6" font-family="Times,serif" font-size="14.00">LoggerModule</text>
</g>
<!-- LoggerModule&#45;&gt;AuthUsecasesProxyModule -->
<g id="edge5" class="edge">
<title>LoggerModule&#45;&gt;AuthUsecasesProxyModule</title>
<path fill="none" stroke="black" d="M222,-84.82C222,-102.17 222,-125.8 222,-125.8 222,-125.8 291.6,-125.8 291.6,-125.8"/>
<polygon fill="black" stroke="black" points="291.6,-129.3 301.6,-125.8 291.6,-122.3 291.6,-129.3"/>
</g>
<!-- RepositoriesModule -->
<g id="node6" class="node">
<title>RepositoriesModule</title>
<polygon fill="#8dd3c7" stroke="black" points="153.55,-84.8 150.55,-88.8 129.55,-88.8 126.55,-84.8 24.45,-84.8 24.45,-48.8 153.55,-48.8 153.55,-84.8"/>
<text text-anchor="middle" x="89" y="-62.6" font-family="Times,serif" font-size="14.00">RepositoriesModule</text>
</g>
<!-- RepositoriesModule&#45;&gt;AuthUsecasesProxyModule -->
<g id="edge6" class="edge">
<title>RepositoriesModule&#45;&gt;AuthUsecasesProxyModule</title>
<path fill="none" stroke="black" d="M89,-85.08C89,-106.12 89,-137.8 89,-137.8 89,-137.8 291.52,-137.8 291.52,-137.8"/>
<polygon fill="black" stroke="black" points="291.52,-141.3 301.52,-137.8 291.52,-134.3 291.52,-141.3"/>
</g>
</g>
</svg>
