<?xml version="1.0" encoding="UTF-8" standalone="no"?>
<!DOCTYPE svg PUBLIC "-//W3C//DTD SVG 1.1//EN"
 "http://www.w3.org/Graphics/SVG/1.1/DTD/svg11.dtd">
<!-- Generated by graphviz version 5.0.0 (20220707.1540)
 -->
<!-- Title: dependencies Pages: 1 -->
<svg width="290pt" height="247pt"
 viewBox="0.00 0.00 290.00 246.80" xmlns="http://www.w3.org/2000/svg" xmlns:xlink="http://www.w3.org/1999/xlink">
<g id="graph0" class="graph" transform="scale(1 1) rotate(0) translate(4 242.8)">
<title>dependencies</title>
<polygon fill="white" stroke="transparent" points="-4,4 -4,-242.8 286,-242.8 286,4 -4,4"/>
<text text-anchor="middle" x="141" y="-8.2" font-family="sans-serif" font-size="14.00">dependencies</text>
<g id="clust1" class="cluster">
<title>cluster_JwtModule</title>
<polygon fill="none" stroke="black" stroke-dasharray="1,5" points="8,-32.8 8,-230.8 274,-230.8 274,-32.8 8,-32.8"/>
</g>
<g id="clust3" class="cluster">
<title>cluster_JwtModule_imports</title>
<polygon fill="none" stroke="black" points="196,-40.8 196,-92.8 266,-92.8 266,-40.8 196,-40.8"/>
</g>
<g id="clust6" class="cluster">
<title>cluster_JwtModule_providers</title>
<polygon fill="none" stroke="black" points="16,-40.8 16,-92.8 188,-92.8 188,-40.8 16,-40.8"/>
</g>
<g id="clust4" class="cluster">
<title>cluster_JwtModule_exports</title>
<polygon fill="none" stroke="black" points="85,-170.8 85,-222.8 217,-222.8 217,-170.8 85,-170.8"/>
</g>
<!-- Jwt -->
<g id="node1" class="node">
<title>Jwt</title>
<polygon fill="#8dd3c7" stroke="black" points="258,-84.8 255,-88.8 234,-88.8 231,-84.8 204,-84.8 204,-48.8 258,-48.8 258,-84.8"/>
<text text-anchor="middle" x="231" y="-62.6" font-family="Times,serif" font-size="14.00">Jwt</text>
</g>
<!-- JwtModule -->
<g id="node2" class="node">
<title>JwtModule</title>
<polygon fill="#8dd3c7" stroke="black" points="190.5,-149.8 187.5,-153.8 166.5,-153.8 163.5,-149.8 111.5,-149.8 111.5,-113.8 190.5,-113.8 190.5,-149.8"/>
<text text-anchor="middle" x="151" y="-127.6" font-family="Times,serif" font-size="14.00">JwtModule</text>
</g>
<!-- Jwt&#45;&gt;JwtModule -->
<g id="edge1" class="edge">
<title>Jwt&#45;&gt;JwtModule</title>
<path fill="none" stroke="black" d="M203.88,-66.8C194.04,-66.8 185.29,-66.8 185.29,-66.8 185.29,-66.8 185.29,-103.69 185.29,-103.69"/>
<polygon fill="black" stroke="black" points="181.79,-103.69 185.29,-113.69 188.79,-103.69 181.79,-103.69"/>
</g>
<!-- JwtTokenService  -->
<g id="node3" class="node">
<title>JwtTokenService </title>
<polygon fill="#fb8072" stroke="black" points="209.19,-214.8 92.81,-214.8 92.81,-178.8 209.19,-178.8 209.19,-214.8"/>
<text text-anchor="middle" x="151" y="-192.6" font-family="Times,serif" font-size="14.00">JwtTokenService </text>
</g>
<!-- JwtModule&#45;&gt;JwtTokenService  -->
<g id="edge2" class="edge">
<title>JwtModule&#45;&gt;JwtTokenService </title>
<path fill="none" stroke="black" stroke-dasharray="5,2" d="M151,-149.91C151,-149.91 151,-168.79 151,-168.79"/>
<polygon fill="black" stroke="black" points="147.5,-168.79 151,-178.79 154.5,-168.79 147.5,-168.79"/>
</g>
<!-- JwtTokenService -->
<g id="node4" class="node">
<title>JwtTokenService</title>
<ellipse fill="#fdb462" stroke="black" cx="102" cy="-66.8" rx="78.16" ry="18"/>
<text text-anchor="middle" x="102" y="-62.6" font-family="Times,serif" font-size="14.00">JwtTokenService</text>
</g>
<!-- JwtTokenService&#45;&gt;JwtModule -->
<g id="edge3" class="edge">
<title>JwtTokenService&#45;&gt;JwtModule</title>
<path fill="none" stroke="black" d="M145.79,-81.88C145.79,-81.88 145.79,-103.56 145.79,-103.56"/>
<polygon fill="black" stroke="black" points="142.29,-103.56 145.79,-113.56 149.29,-103.56 142.29,-103.56"/>
</g>
</g>
</svg>
