<?xml version="1.0" encoding="UTF-8" standalone="no"?>
<!DOCTYPE svg PUBLIC "-//W3C//DTD SVG 1.1//EN"
 "http://www.w3.org/Graphics/SVG/1.1/DTD/svg11.dtd">
<!-- Generated by graphviz version 5.0.0 (20220707.1540)
 -->
<!-- Title: dependencies Pages: 1 -->
<svg width="645pt" height="174pt"
 viewBox="0.00 0.00 645.00 173.80" xmlns="http://www.w3.org/2000/svg" xmlns:xlink="http://www.w3.org/1999/xlink">
<g id="graph0" class="graph" transform="scale(1 1) rotate(0) translate(4 169.8)">
<title>dependencies</title>
<polygon fill="white" stroke="transparent" points="-4,4 -4,-169.8 641,-169.8 641,4 -4,4"/>
<text text-anchor="middle" x="318.5" y="-8.2" font-family="sans-serif" font-size="14.00">dependencies</text>
<g id="clust1" class="cluster">
<title>cluster_ControllersModule</title>
<polygon fill="none" stroke="black" stroke-dasharray="1,5" points="8,-32.8 8,-157.8 629,-157.8 629,-32.8 8,-32.8"/>
</g>
<g id="clust3" class="cluster">
<title>cluster_ControllersModule_imports</title>
<polygon fill="none" stroke="black" points="16,-40.8 16,-92.8 621,-92.8 621,-40.8 16,-40.8"/>
</g>
<!-- AuthUsecasesProxyModule -->
<g id="node1" class="node">
<title>AuthUsecasesProxyModule</title>
<polygon fill="#8dd3c7" stroke="black" points="613.31,-84.8 610.31,-88.8 589.31,-88.8 586.31,-84.8 440.69,-84.8 440.69,-48.8 613.31,-48.8 613.31,-84.8"/>
<text text-anchor="middle" x="527" y="-62.6" font-family="Times,serif" font-size="14.00">AuthUsecasesProxyModule</text>
</g>
<!-- ControllersModule -->
<g id="node4" class="node">
<title>ControllersModule</title>
<polygon fill="#8dd3c7" stroke="black" points="379.05,-149.8 376.05,-153.8 355.05,-153.8 352.05,-149.8 256.95,-149.8 256.95,-113.8 379.05,-113.8 379.05,-149.8"/>
<text text-anchor="middle" x="318" y="-127.6" font-family="Times,serif" font-size="14.00">ControllersModule</text>
</g>
<!-- AuthUsecasesProxyModule&#45;&gt;ControllersModule -->
<g id="edge1" class="edge">
<title>AuthUsecasesProxyModule&#45;&gt;ControllersModule</title>
<path fill="none" stroke="black" d="M527,-84.91C527,-104.14 527,-131.8 527,-131.8 527,-131.8 389.29,-131.8 389.29,-131.8"/>
<polygon fill="black" stroke="black" points="389.29,-128.3 379.29,-131.8 389.29,-135.3 389.29,-128.3"/>
</g>
<!-- TransactionUsecasesProxyModule -->
<g id="node2" class="node">
<title>TransactionUsecasesProxyModule</title>
<polygon fill="#8dd3c7" stroke="black" points="423.39,-84.8 420.39,-88.8 399.39,-88.8 396.39,-84.8 212.61,-84.8 212.61,-48.8 423.39,-48.8 423.39,-84.8"/>
<text text-anchor="middle" x="318" y="-62.6" font-family="Times,serif" font-size="14.00">TransactionUsecasesProxyModule</text>
</g>
<!-- TransactionUsecasesProxyModule&#45;&gt;ControllersModule -->
<g id="edge2" class="edge">
<title>TransactionUsecasesProxyModule&#45;&gt;ControllersModule</title>
<path fill="none" stroke="black" d="M318,-84.91C318,-84.91 318,-103.79 318,-103.79"/>
<polygon fill="black" stroke="black" points="314.5,-103.79 318,-113.79 321.5,-103.79 314.5,-103.79"/>
</g>
<!-- UserUsecasesProxyModule -->
<g id="node3" class="node">
<title>UserUsecasesProxyModule</title>
<polygon fill="#8dd3c7" stroke="black" points="194.25,-84.8 191.25,-88.8 170.25,-88.8 167.25,-84.8 23.75,-84.8 23.75,-48.8 194.25,-48.8 194.25,-84.8"/>
<text text-anchor="middle" x="109" y="-62.6" font-family="Times,serif" font-size="14.00">UserUsecasesProxyModule</text>
</g>
<!-- UserUsecasesProxyModule&#45;&gt;ControllersModule -->
<g id="edge3" class="edge">
<title>UserUsecasesProxyModule&#45;&gt;ControllersModule</title>
<path fill="none" stroke="black" d="M109,-84.91C109,-104.14 109,-131.8 109,-131.8 109,-131.8 246.71,-131.8 246.71,-131.8"/>
<polygon fill="black" stroke="black" points="246.71,-135.3 256.71,-131.8 246.71,-128.3 246.71,-135.3"/>
</g>
</g>
</svg>
