<?xml version="1.0" encoding="UTF-8" standalone="no"?>
<!DOCTYPE svg PUBLIC "-//W3C//DTD SVG 1.1//EN"
 "http://www.w3.org/Graphics/SVG/1.1/DTD/svg11.dtd">
<!-- Generated by graphviz version 5.0.0 (20220707.1540)
 -->
<!-- Title: dependencies Pages: 1 -->
<svg width="922pt" height="174pt"
 viewBox="0.00 0.00 922.00 173.80" xmlns="http://www.w3.org/2000/svg" xmlns:xlink="http://www.w3.org/1999/xlink">
<g id="graph0" class="graph" transform="scale(1 1) rotate(0) translate(4 169.8)">
<title>dependencies</title>
<polygon fill="white" stroke="transparent" points="-4,4 -4,-169.8 918,-169.8 918,4 -4,4"/>
<text text-anchor="middle" x="457" y="-8.2" font-family="sans-serif" font-size="14.00">dependencies</text>
<g id="clust1" class="cluster">
<title>cluster_TransactionUsecasesProxyModule</title>
<polygon fill="none" stroke="black" stroke-dasharray="1,5" points="8,-32.8 8,-157.8 906,-157.8 906,-32.8 8,-32.8"/>
</g>
<g id="clust3" class="cluster">
<title>cluster_TransactionUsecasesProxyModule_imports</title>
<polygon fill="none" stroke="black" points="16,-40.8 16,-92.8 898,-92.8 898,-40.8 16,-40.8"/>
</g>
<!-- ApiConfigModule -->
<g id="node1" class="node">
<title>ApiConfigModule</title>
<polygon fill="#8dd3c7" stroke="black" points="889.94,-84.8 886.94,-88.8 865.94,-88.8 862.94,-84.8 770.06,-84.8 770.06,-48.8 889.94,-48.8 889.94,-84.8"/>
<text text-anchor="middle" x="830" y="-62.6" font-family="Times,serif" font-size="14.00">ApiConfigModule</text>
</g>
<!-- TransactionUsecasesProxyModule -->
<g id="node7" class="node">
<title>TransactionUsecasesProxyModule</title>
<polygon fill="#8dd3c7" stroke="black" points="538.39,-149.8 535.39,-153.8 514.39,-153.8 511.39,-149.8 327.61,-149.8 327.61,-113.8 538.39,-113.8 538.39,-149.8"/>
<text text-anchor="middle" x="433" y="-127.6" font-family="Times,serif" font-size="14.00">TransactionUsecasesProxyModule</text>
</g>
<!-- ApiConfigModule&#45;&gt;TransactionUsecasesProxyModule -->
<g id="edge1" class="edge">
<title>ApiConfigModule&#45;&gt;TransactionUsecasesProxyModule</title>
<path fill="none" stroke="black" d="M830,-85.08C830,-106.12 830,-137.8 830,-137.8 830,-137.8 548.35,-137.8 548.35,-137.8"/>
<polygon fill="black" stroke="black" points="548.35,-134.3 538.35,-137.8 548.35,-141.3 548.35,-134.3"/>
</g>
<!-- CacheConfigModule -->
<g id="node2" class="node">
<title>CacheConfigModule</title>
<polygon fill="#8dd3c7" stroke="black" points="752.92,-84.8 749.92,-88.8 728.92,-88.8 725.92,-84.8 619.08,-84.8 619.08,-48.8 752.92,-48.8 752.92,-84.8"/>
<text text-anchor="middle" x="686" y="-62.6" font-family="Times,serif" font-size="14.00">CacheConfigModule</text>
</g>
<!-- CacheConfigModule&#45;&gt;TransactionUsecasesProxyModule -->
<g id="edge2" class="edge">
<title>CacheConfigModule&#45;&gt;TransactionUsecasesProxyModule</title>
<path fill="none" stroke="black" d="M686,-84.82C686,-102.17 686,-125.8 686,-125.8 686,-125.8 548.46,-125.8 548.46,-125.8"/>
<polygon fill="black" stroke="black" points="548.46,-122.3 538.46,-125.8 548.46,-129.3 548.46,-122.3"/>
</g>
<!-- EnvironmentConfigModule -->
<g id="node3" class="node">
<title>EnvironmentConfigModule</title>
<polygon fill="#8dd3c7" stroke="black" points="601.54,-84.8 598.54,-88.8 577.54,-88.8 574.54,-84.8 430.46,-84.8 430.46,-48.8 601.54,-48.8 601.54,-84.8"/>
<text text-anchor="middle" x="516" y="-62.6" font-family="Times,serif" font-size="14.00">EnvironmentConfigModule</text>
</g>
<!-- EnvironmentConfigModule&#45;&gt;TransactionUsecasesProxyModule -->
<g id="edge3" class="edge">
<title>EnvironmentConfigModule&#45;&gt;TransactionUsecasesProxyModule</title>
<path fill="none" stroke="black" d="M484.21,-84.91C484.21,-84.91 484.21,-103.79 484.21,-103.79"/>
<polygon fill="black" stroke="black" points="480.71,-103.79 484.21,-113.79 487.71,-103.79 480.71,-103.79"/>
</g>
<!-- ExceptionsModule -->
<g id="node4" class="node">
<title>ExceptionsModule</title>
<polygon fill="#8dd3c7" stroke="black" points="411.76,-84.8 408.76,-88.8 387.76,-88.8 384.76,-84.8 290.24,-84.8 290.24,-48.8 411.76,-48.8 411.76,-84.8"/>
<text text-anchor="middle" x="351" y="-62.6" font-family="Times,serif" font-size="14.00">ExceptionsModule</text>
</g>
<!-- ExceptionsModule&#45;&gt;TransactionUsecasesProxyModule -->
<g id="edge4" class="edge">
<title>ExceptionsModule&#45;&gt;TransactionUsecasesProxyModule</title>
<path fill="none" stroke="black" d="M369.84,-84.91C369.84,-84.91 369.84,-103.79 369.84,-103.79"/>
<polygon fill="black" stroke="black" points="366.34,-103.79 369.84,-113.79 373.34,-103.79 366.34,-103.79"/>
</g>
<!-- LoggerModule -->
<g id="node5" class="node">
<title>LoggerModule</title>
<polygon fill="#8dd3c7" stroke="black" points="271.98,-84.8 268.98,-88.8 247.98,-88.8 244.98,-84.8 172.02,-84.8 172.02,-48.8 271.98,-48.8 271.98,-84.8"/>
<text text-anchor="middle" x="222" y="-62.6" font-family="Times,serif" font-size="14.00">LoggerModule</text>
</g>
<!-- LoggerModule&#45;&gt;TransactionUsecasesProxyModule -->
<g id="edge5" class="edge">
<title>LoggerModule&#45;&gt;TransactionUsecasesProxyModule</title>
<path fill="none" stroke="black" d="M222,-84.82C222,-102.17 222,-125.8 222,-125.8 222,-125.8 317.5,-125.8 317.5,-125.8"/>
<polygon fill="black" stroke="black" points="317.5,-129.3 327.5,-125.8 317.5,-122.3 317.5,-129.3"/>
</g>
<!-- RepositoriesModule -->
<g id="node6" class="node">
<title>RepositoriesModule</title>
<polygon fill="#8dd3c7" stroke="black" points="153.55,-84.8 150.55,-88.8 129.55,-88.8 126.55,-84.8 24.45,-84.8 24.45,-48.8 153.55,-48.8 153.55,-84.8"/>
<text text-anchor="middle" x="89" y="-62.6" font-family="Times,serif" font-size="14.00">RepositoriesModule</text>
</g>
<!-- RepositoriesModule&#45;&gt;TransactionUsecasesProxyModule -->
<g id="edge6" class="edge">
<title>RepositoriesModule&#45;&gt;TransactionUsecasesProxyModule</title>
<path fill="none" stroke="black" d="M89,-85.08C89,-106.12 89,-137.8 89,-137.8 89,-137.8 317.45,-137.8 317.45,-137.8"/>
<polygon fill="black" stroke="black" points="317.45,-141.3 327.45,-137.8 317.45,-134.3 317.45,-141.3"/>
</g>
</g>
</svg>
