<?xml version="1.0" encoding="UTF-8" standalone="no"?>
<!DOCTYPE svg PUBLIC "-//W3C//DTD SVG 1.1//EN"
 "http://www.w3.org/Graphics/SVG/1.1/DTD/svg11.dtd">
<!-- Generated by graphviz version 5.0.0 (20220707.1540)
 -->
<!-- Title: dependencies Pages: 1 -->
<svg width="1026pt" height="174pt"
 viewBox="0.00 0.00 1026.00 173.80" xmlns="http://www.w3.org/2000/svg" xmlns:xlink="http://www.w3.org/1999/xlink">
<g id="graph0" class="graph" transform="scale(1 1) rotate(0) translate(4 169.8)">
<title>dependencies</title>
<polygon fill="white" stroke="transparent" points="-4,4 -4,-169.8 1022,-169.8 1022,4 -4,4"/>
<text text-anchor="middle" x="509" y="-8.2" font-family="sans-serif" font-size="14.00">dependencies</text>
<g id="clust1" class="cluster">
<title>cluster_AppModule</title>
<polygon fill="none" stroke="black" stroke-dasharray="1,5" points="8,-32.8 8,-157.8 1010,-157.8 1010,-32.8 8,-32.8"/>
</g>
<g id="clust6" class="cluster">
<title>cluster_AppModule_providers</title>
<polygon fill="none" stroke="black" points="724,-40.8 724,-92.8 1002,-92.8 1002,-40.8 724,-40.8"/>
</g>
<g id="clust3" class="cluster">
<title>cluster_AppModule_imports</title>
<polygon fill="none" stroke="black" points="16,-40.8 16,-92.8 716,-92.8 716,-40.8 16,-40.8"/>
</g>
<!-- ApiConfigModule -->
<g id="node1" class="node">
<title>ApiConfigModule</title>
<polygon fill="#8dd3c7" stroke="black" points="707.94,-84.8 704.94,-88.8 683.94,-88.8 680.94,-84.8 588.06,-84.8 588.06,-48.8 707.94,-48.8 707.94,-84.8"/>
<text text-anchor="middle" x="648" y="-62.6" font-family="Times,serif" font-size="14.00">ApiConfigModule</text>
</g>
<!-- AppModule -->
<g id="node6" class="node">
<title>AppModule</title>
<polygon fill="#8dd3c7" stroke="black" points="562.66,-149.8 559.66,-153.8 538.66,-153.8 535.66,-149.8 479.34,-149.8 479.34,-113.8 562.66,-113.8 562.66,-149.8"/>
<text text-anchor="middle" x="521" y="-127.6" font-family="Times,serif" font-size="14.00">AppModule</text>
</g>
<!-- ApiConfigModule&#45;&gt;AppModule -->
<g id="edge1" class="edge">
<title>ApiConfigModule&#45;&gt;AppModule</title>
<path fill="none" stroke="black" d="M648,-84.83C648,-101.2 648,-122.8 648,-122.8 648,-122.8 572.94,-122.8 572.94,-122.8"/>
<polygon fill="black" stroke="black" points="572.94,-119.3 562.94,-122.8 572.94,-126.3 572.94,-119.3"/>
</g>
<!-- BcryptModule -->
<g id="node2" class="node">
<title>BcryptModule</title>
<polygon fill="#8dd3c7" stroke="black" points="569.66,-84.8 566.66,-88.8 545.66,-88.8 542.66,-84.8 472.34,-84.8 472.34,-48.8 569.66,-48.8 569.66,-84.8"/>
<text text-anchor="middle" x="521" y="-62.6" font-family="Times,serif" font-size="14.00">BcryptModule</text>
</g>
<!-- BcryptModule&#45;&gt;AppModule -->
<g id="edge2" class="edge">
<title>BcryptModule&#45;&gt;AppModule</title>
<path fill="none" stroke="black" d="M521,-84.91C521,-84.91 521,-103.79 521,-103.79"/>
<polygon fill="black" stroke="black" points="517.5,-103.79 521,-113.79 524.5,-103.79 517.5,-103.79"/>
</g>
<!-- EnvironmentConfigModule -->
<g id="node3" class="node">
<title>EnvironmentConfigModule</title>
<polygon fill="#8dd3c7" stroke="black" points="453.54,-84.8 450.54,-88.8 429.54,-88.8 426.54,-84.8 282.46,-84.8 282.46,-48.8 453.54,-48.8 453.54,-84.8"/>
<text text-anchor="middle" x="368" y="-62.6" font-family="Times,serif" font-size="14.00">EnvironmentConfigModule</text>
</g>
<!-- EnvironmentConfigModule&#45;&gt;AppModule -->
<g id="edge3" class="edge">
<title>EnvironmentConfigModule&#45;&gt;AppModule</title>
<path fill="none" stroke="black" d="M368,-84.83C368,-101.2 368,-122.8 368,-122.8 368,-122.8 469.19,-122.8 469.19,-122.8"/>
<polygon fill="black" stroke="black" points="469.19,-126.3 479.19,-122.8 469.19,-119.3 469.19,-126.3"/>
</g>
<!-- ExceptionsModule -->
<g id="node4" class="node">
<title>ExceptionsModule</title>
<polygon fill="#8dd3c7" stroke="black" points="263.76,-84.8 260.76,-88.8 239.76,-88.8 236.76,-84.8 142.24,-84.8 142.24,-48.8 263.76,-48.8 263.76,-84.8"/>
<text text-anchor="middle" x="203" y="-62.6" font-family="Times,serif" font-size="14.00">ExceptionsModule</text>
</g>
<!-- ExceptionsModule&#45;&gt;AppModule -->
<g id="edge4" class="edge">
<title>ExceptionsModule&#45;&gt;AppModule</title>
<path fill="none" stroke="black" d="M203,-84.91C203,-104.14 203,-131.8 203,-131.8 203,-131.8 469.1,-131.8 469.1,-131.8"/>
<polygon fill="black" stroke="black" points="469.1,-135.3 479.1,-131.8 469.1,-128.3 469.1,-135.3"/>
</g>
<!-- LoggerModule -->
<g id="node5" class="node">
<title>LoggerModule</title>
<polygon fill="#8dd3c7" stroke="black" points="123.98,-84.8 120.98,-88.8 99.98,-88.8 96.98,-84.8 24.02,-84.8 24.02,-48.8 123.98,-48.8 123.98,-84.8"/>
<text text-anchor="middle" x="74" y="-62.6" font-family="Times,serif" font-size="14.00">LoggerModule</text>
</g>
<!-- LoggerModule&#45;&gt;AppModule -->
<g id="edge5" class="edge">
<title>LoggerModule&#45;&gt;AppModule</title>
<path fill="none" stroke="black" d="M74,-85.09C74,-107.01 74,-140.8 74,-140.8 74,-140.8 468.95,-140.8 468.95,-140.8"/>
<polygon fill="black" stroke="black" points="468.95,-144.3 478.95,-140.8 468.95,-137.3 468.95,-144.3"/>
</g>
<!-- JwtStrategy -->
<g id="node7" class="node">
<title>JwtStrategy</title>
<ellipse fill="#fdb462" stroke="black" cx="937" cy="-66.8" rx="56.77" ry="18"/>
<text text-anchor="middle" x="937" y="-62.6" font-family="Times,serif" font-size="14.00">JwtStrategy</text>
</g>
<!-- JwtStrategy&#45;&gt;AppModule -->
<g id="edge6" class="edge">
<title>JwtStrategy&#45;&gt;AppModule</title>
<path fill="none" stroke="black" d="M937,-85.09C937,-107.01 937,-140.8 937,-140.8 937,-140.8 572.79,-140.8 572.79,-140.8"/>
<polygon fill="black" stroke="black" points="572.79,-137.3 562.79,-140.8 572.79,-144.3 572.79,-137.3"/>
</g>
<!-- LocalStrategy -->
<g id="node8" class="node">
<title>LocalStrategy</title>
<ellipse fill="#fdb462" stroke="black" cx="797" cy="-66.8" rx="65.4" ry="18"/>
<text text-anchor="middle" x="797" y="-62.6" font-family="Times,serif" font-size="14.00">LocalStrategy</text>
</g>
<!-- LocalStrategy&#45;&gt;AppModule -->
<g id="edge7" class="edge">
<title>LocalStrategy&#45;&gt;AppModule</title>
<path fill="none" stroke="black" d="M797,-84.91C797,-104.14 797,-131.8 797,-131.8 797,-131.8 572.92,-131.8 572.92,-131.8"/>
<polygon fill="black" stroke="black" points="572.92,-128.3 562.92,-131.8 572.92,-135.3 572.92,-128.3"/>
</g>
</g>
</svg>
