<?xml version="1.0" encoding="UTF-8" standalone="no"?>
<!DOCTYPE svg PUBLIC "-//W3C//DTD SVG 1.1//EN"
 "http://www.w3.org/Graphics/SVG/1.1/DTD/svg11.dtd">
<!-- Generated by graphviz version 5.0.0 (20220707.1540)
 -->
<!-- Title: dependencies Pages: 1 -->
<svg width="901pt" height="174pt"
 viewBox="0.00 0.00 901.00 173.80" xmlns="http://www.w3.org/2000/svg" xmlns:xlink="http://www.w3.org/1999/xlink">
<g id="graph0" class="graph" transform="scale(1 1) rotate(0) translate(4 169.8)">
<title>dependencies</title>
<polygon fill="white" stroke="transparent" points="-4,4 -4,-169.8 897,-169.8 897,4 -4,4"/>
<text text-anchor="middle" x="446.5" y="-8.2" font-family="sans-serif" font-size="14.00">dependencies</text>
<g id="clust1" class="cluster">
<title>cluster_UserUsecasesProxyModule</title>
<polygon fill="none" stroke="black" stroke-dasharray="1,5" points="8,-32.8 8,-157.8 885,-157.8 885,-32.8 8,-32.8"/>
</g>
<g id="clust3" class="cluster">
<title>cluster_UserUsecasesProxyModule_imports</title>
<polygon fill="none" stroke="black" points="16,-40.8 16,-92.8 877,-92.8 877,-40.8 16,-40.8"/>
</g>
<!-- BcryptModule -->
<g id="node1" class="node">
<title>BcryptModule</title>
<polygon fill="#8dd3c7" stroke="black" points="868.66,-84.8 865.66,-88.8 844.66,-88.8 841.66,-84.8 771.34,-84.8 771.34,-48.8 868.66,-48.8 868.66,-84.8"/>
<text text-anchor="middle" x="820" y="-62.6" font-family="Times,serif" font-size="14.00">BcryptModule</text>
</g>
<!-- UserUsecasesProxyModule -->
<g id="node7" class="node">
<title>UserUsecasesProxyModule</title>
<polygon fill="#8dd3c7" stroke="black" points="518.25,-149.8 515.25,-153.8 494.25,-153.8 491.25,-149.8 347.75,-149.8 347.75,-113.8 518.25,-113.8 518.25,-149.8"/>
<text text-anchor="middle" x="433" y="-127.6" font-family="Times,serif" font-size="14.00">UserUsecasesProxyModule</text>
</g>
<!-- BcryptModule&#45;&gt;UserUsecasesProxyModule -->
<g id="edge1" class="edge">
<title>BcryptModule&#45;&gt;UserUsecasesProxyModule</title>
<path fill="none" stroke="black" d="M820,-85.08C820,-106.12 820,-137.8 820,-137.8 820,-137.8 528.41,-137.8 528.41,-137.8"/>
<polygon fill="black" stroke="black" points="528.41,-134.3 518.41,-137.8 528.41,-141.3 528.41,-134.3"/>
</g>
<!-- CacheConfigModule -->
<g id="node2" class="node">
<title>CacheConfigModule</title>
<polygon fill="#8dd3c7" stroke="black" points="752.92,-84.8 749.92,-88.8 728.92,-88.8 725.92,-84.8 619.08,-84.8 619.08,-48.8 752.92,-48.8 752.92,-84.8"/>
<text text-anchor="middle" x="686" y="-62.6" font-family="Times,serif" font-size="14.00">CacheConfigModule</text>
</g>
<!-- CacheConfigModule&#45;&gt;UserUsecasesProxyModule -->
<g id="edge2" class="edge">
<title>CacheConfigModule&#45;&gt;UserUsecasesProxyModule</title>
<path fill="none" stroke="black" d="M686,-84.82C686,-102.17 686,-125.8 686,-125.8 686,-125.8 528.3,-125.8 528.3,-125.8"/>
<polygon fill="black" stroke="black" points="528.3,-122.3 518.3,-125.8 528.3,-129.3 528.3,-122.3"/>
</g>
<!-- EnvironmentConfigModule -->
<g id="node3" class="node">
<title>EnvironmentConfigModule</title>
<polygon fill="#8dd3c7" stroke="black" points="601.54,-84.8 598.54,-88.8 577.54,-88.8 574.54,-84.8 430.46,-84.8 430.46,-48.8 601.54,-48.8 601.54,-84.8"/>
<text text-anchor="middle" x="516" y="-62.6" font-family="Times,serif" font-size="14.00">EnvironmentConfigModule</text>
</g>
<!-- EnvironmentConfigModule&#45;&gt;UserUsecasesProxyModule -->
<g id="edge3" class="edge">
<title>EnvironmentConfigModule&#45;&gt;UserUsecasesProxyModule</title>
<path fill="none" stroke="black" d="M474.3,-84.91C474.3,-84.91 474.3,-103.79 474.3,-103.79"/>
<polygon fill="black" stroke="black" points="470.8,-103.79 474.3,-113.79 477.8,-103.79 470.8,-103.79"/>
</g>
<!-- ExceptionsModule -->
<g id="node4" class="node">
<title>ExceptionsModule</title>
<polygon fill="#8dd3c7" stroke="black" points="411.76,-84.8 408.76,-88.8 387.76,-88.8 384.76,-84.8 290.24,-84.8 290.24,-48.8 411.76,-48.8 411.76,-84.8"/>
<text text-anchor="middle" x="351" y="-62.6" font-family="Times,serif" font-size="14.00">ExceptionsModule</text>
</g>
<!-- ExceptionsModule&#45;&gt;UserUsecasesProxyModule -->
<g id="edge4" class="edge">
<title>ExceptionsModule&#45;&gt;UserUsecasesProxyModule</title>
<path fill="none" stroke="black" d="M379.75,-84.91C379.75,-84.91 379.75,-103.79 379.75,-103.79"/>
<polygon fill="black" stroke="black" points="376.25,-103.79 379.75,-113.79 383.25,-103.79 376.25,-103.79"/>
</g>
<!-- LoggerModule -->
<g id="node5" class="node">
<title>LoggerModule</title>
<polygon fill="#8dd3c7" stroke="black" points="271.98,-84.8 268.98,-88.8 247.98,-88.8 244.98,-84.8 172.02,-84.8 172.02,-48.8 271.98,-48.8 271.98,-84.8"/>
<text text-anchor="middle" x="222" y="-62.6" font-family="Times,serif" font-size="14.00">LoggerModule</text>
</g>
<!-- LoggerModule&#45;&gt;UserUsecasesProxyModule -->
<g id="edge5" class="edge">
<title>LoggerModule&#45;&gt;UserUsecasesProxyModule</title>
<path fill="none" stroke="black" d="M222,-84.82C222,-102.17 222,-125.8 222,-125.8 222,-125.8 337.48,-125.8 337.48,-125.8"/>
<polygon fill="black" stroke="black" points="337.48,-129.3 347.48,-125.8 337.48,-122.3 337.48,-129.3"/>
</g>
<!-- RepositoriesModule -->
<g id="node6" class="node">
<title>RepositoriesModule</title>
<polygon fill="#8dd3c7" stroke="black" points="153.55,-84.8 150.55,-88.8 129.55,-88.8 126.55,-84.8 24.45,-84.8 24.45,-48.8 153.55,-48.8 153.55,-84.8"/>
<text text-anchor="middle" x="89" y="-62.6" font-family="Times,serif" font-size="14.00">RepositoriesModule</text>
</g>
<!-- RepositoriesModule&#45;&gt;UserUsecasesProxyModule -->
<g id="edge6" class="edge">
<title>RepositoriesModule&#45;&gt;UserUsecasesProxyModule</title>
<path fill="none" stroke="black" d="M89,-85.08C89,-106.12 89,-137.8 89,-137.8 89,-137.8 337.52,-137.8 337.52,-137.8"/>
<polygon fill="black" stroke="black" points="337.52,-141.3 347.52,-137.8 337.52,-134.3 337.52,-141.3"/>
</g>
</g>
</svg>
